<mxfile host="65bd71144e">
    <diagram id="urxjPISI1asEZa0bydpk" name="Page-1">
        <mxGraphModel dx="3006" dy="607" grid="1" gridSize="10" guides="1" tooltips="1" connect="1" arrows="1" fold="1" page="1" pageScale="1" pageWidth="850" pageHeight="1100" math="0" shadow="0">
            <root>
                <mxCell id="0"/>
                <mxCell id="1" parent="0"/>
                <mxCell id="5" value="" style="rounded=1;whiteSpace=wrap;html=1;" vertex="1" parent="1">
                    <mxGeometry x="380" y="20" width="120" height="60" as="geometry"/>
                </mxCell>
                <mxCell id="6" value="" style="rounded=1;whiteSpace=wrap;html=1;" vertex="1" parent="1">
                    <mxGeometry x="30" y="20" width="120" height="60" as="geometry"/>
                </mxCell>
                <mxCell id="7" value="" style="rounded=1;whiteSpace=wrap;html=1;" vertex="1" parent="1">
                    <mxGeometry x="660" y="20" width="120" height="60" as="geometry"/>
                </mxCell>
                <mxCell id="9" value="" style="line;strokeWidth=2;direction=south;html=1;" vertex="1" parent="1">
                    <mxGeometry x="85" y="80" width="10" height="160" as="geometry"/>
                </mxCell>
                <mxCell id="10" value="" style="line;strokeWidth=2;direction=south;html=1;" vertex="1" parent="1">
                    <mxGeometry x="85" y="230" width="10" height="160" as="geometry"/>
                </mxCell>
                <mxCell id="36" style="edgeStyle=none;html=1;exitX=0.075;exitY=0.349;exitDx=0;exitDy=0;exitPerimeter=0;fontFamily=Courier New;entryX=0.065;entryY=0.354;entryDx=0;entryDy=0;entryPerimeter=0;" edge="1" parent="1" source="11" target="43">
                    <mxGeometry relative="1" as="geometry">
                        <mxPoint x="250" y="120" as="targetPoint"/>
                        <Array as="points"/>
                    </mxGeometry>
                </mxCell>
                <mxCell id="11" value="" style="line;strokeWidth=2;direction=south;html=1;" vertex="1" parent="1">
                    <mxGeometry x="435" y="80" width="10" height="160" as="geometry"/>
                </mxCell>
                <mxCell id="12" value="" style="line;strokeWidth=2;direction=south;html=1;" vertex="1" parent="1">
                    <mxGeometry x="715" y="80" width="10" height="160" as="geometry"/>
                </mxCell>
                <mxCell id="15" value="Main" style="text;html=1;strokeColor=none;fillColor=none;align=center;verticalAlign=middle;whiteSpace=wrap;rounded=0;fontFamily=Courier New;" vertex="1" parent="1">
                    <mxGeometry x="410" y="35" width="60" height="30" as="geometry"/>
                </mxCell>
                <mxCell id="17" value="Harvester" style="text;html=1;strokeColor=none;fillColor=none;align=center;verticalAlign=middle;whiteSpace=wrap;rounded=0;fontFamily=Courier New;" vertex="1" parent="1">
                    <mxGeometry x="690" y="35" width="60" height="30" as="geometry"/>
                </mxCell>
                <mxCell id="18" value="Field" style="text;html=1;strokeColor=none;fillColor=none;align=center;verticalAlign=middle;whiteSpace=wrap;rounded=0;fontFamily=Courier New;" vertex="1" parent="1">
                    <mxGeometry x="60" y="35" width="60" height="30" as="geometry"/>
                </mxCell>
                <mxCell id="19" value="" style="rounded=1;whiteSpace=wrap;html=1;fontFamily=Courier New;" vertex="1" parent="1">
                    <mxGeometry x="200" y="20" width="120" height="60" as="geometry"/>
                </mxCell>
                <mxCell id="20" value="" style="rounded=1;whiteSpace=wrap;html=1;fontFamily=Courier New;" vertex="1" parent="1">
                    <mxGeometry x="890" y="20" width="120" height="60" as="geometry"/>
                </mxCell>
                <mxCell id="21" value="Tractor" style="text;html=1;strokeColor=none;fillColor=none;align=center;verticalAlign=middle;whiteSpace=wrap;rounded=0;fontFamily=Courier New;" vertex="1" parent="1">
                    <mxGeometry x="220" y="35" width="60" height="30" as="geometry"/>
                </mxCell>
                <mxCell id="22" value="" style="rounded=1;whiteSpace=wrap;html=1;fontFamily=Courier New;" vertex="1" parent="1">
                    <mxGeometry x="-180" y="20" width="120" height="60" as="geometry"/>
                </mxCell>
                <mxCell id="23" value="Corn" style="text;html=1;strokeColor=none;fillColor=none;align=center;verticalAlign=middle;whiteSpace=wrap;rounded=0;fontFamily=Courier New;" vertex="1" parent="1">
                    <mxGeometry x="-150" y="35" width="60" height="30" as="geometry"/>
                </mxCell>
                <mxCell id="24" value="" style="rounded=1;whiteSpace=wrap;html=1;fontFamily=Courier New;" vertex="1" parent="1">
                    <mxGeometry x="-370" y="20" width="120" height="60" as="geometry"/>
                </mxCell>
                <mxCell id="25" value="" style="rounded=1;whiteSpace=wrap;html=1;fontFamily=Courier New;" vertex="1" parent="1">
                    <mxGeometry x="-540" y="20" width="120" height="60" as="geometry"/>
                </mxCell>
                <mxCell id="26" value="Soybean" style="text;html=1;strokeColor=none;fillColor=none;align=center;verticalAlign=middle;whiteSpace=wrap;rounded=0;fontFamily=Courier New;" vertex="1" parent="1">
                    <mxGeometry x="-510" y="35" width="60" height="30" as="geometry"/>
                </mxCell>
                <mxCell id="27" value="" style="rounded=1;whiteSpace=wrap;html=1;fontFamily=Courier New;" vertex="1" parent="1">
                    <mxGeometry x="-730" y="20" width="120" height="60" as="geometry"/>
                </mxCell>
                <mxCell id="28" value="Potato" style="text;html=1;strokeColor=none;fillColor=none;align=center;verticalAlign=middle;whiteSpace=wrap;rounded=0;fontFamily=Courier New;" vertex="1" parent="1">
                    <mxGeometry x="-340" y="35" width="60" height="30" as="geometry"/>
                </mxCell>
                <mxCell id="29" value="Asparagus" style="text;html=1;strokeColor=none;fillColor=none;align=center;verticalAlign=middle;whiteSpace=wrap;rounded=0;fontFamily=Courier New;" vertex="1" parent="1">
                    <mxGeometry x="-700" y="35" width="60" height="30" as="geometry"/>
                </mxCell>
                <mxCell id="30" value="" style="rounded=1;whiteSpace=wrap;html=1;fontFamily=Courier New;" vertex="1" parent="1">
                    <mxGeometry x="-890" y="20" width="120" height="60" as="geometry"/>
                </mxCell>
                <mxCell id="31" value="Wheat" style="text;html=1;strokeColor=none;fillColor=none;align=center;verticalAlign=middle;whiteSpace=wrap;rounded=0;fontFamily=Courier New;" vertex="1" parent="1">
                    <mxGeometry x="-860" y="35" width="60" height="30" as="geometry"/>
                </mxCell>
                <mxCell id="32" value="" style="rounded=1;whiteSpace=wrap;html=1;fontFamily=Courier New;" vertex="1" parent="1">
                    <mxGeometry x="-1070" y="20" width="120" height="60" as="geometry"/>
                </mxCell>
                <mxCell id="33" value="Sunflower" style="text;html=1;strokeColor=none;fillColor=none;align=center;verticalAlign=middle;whiteSpace=wrap;rounded=0;fontFamily=Courier New;" vertex="1" parent="1">
                    <mxGeometry x="-1040" y="35" width="60" height="30" as="geometry"/>
                </mxCell>
                <mxCell id="34" value="Plan" style="text;html=1;strokeColor=none;fillColor=none;align=center;verticalAlign=middle;whiteSpace=wrap;rounded=0;fontFamily=Courier New;" vertex="1" parent="1">
                    <mxGeometry x="920" y="35" width="60" height="30" as="geometry"/>
                </mxCell>
                <mxCell id="37" value="" style="line;strokeWidth=2;direction=south;html=1;fontFamily=Courier New;" vertex="1" parent="1">
                    <mxGeometry x="960" y="80" width="5" height="160" as="geometry"/>
                </mxCell>
                <mxCell id="38" value="Invoke plantSeeds" style="text;html=1;strokeColor=none;fillColor=none;align=center;verticalAlign=middle;whiteSpace=wrap;rounded=0;fontFamily=Courier New;" vertex="1" parent="1">
                    <mxGeometry x="251.25" y="90" width="210" height="30" as="geometry"/>
                </mxCell>
                <mxCell id="42" value="" style="line;strokeWidth=2;direction=south;html=1;fontFamily=Courier New;" vertex="1" parent="1">
                    <mxGeometry x="435" y="240" width="10" height="160" as="geometry"/>
                </mxCell>
                <mxCell id="43" value="" style="line;strokeWidth=2;direction=south;html=1;fontFamily=Courier New;" vertex="1" parent="1">
                    <mxGeometry x="252.5" y="80" width="7.5" height="160" as="geometry"/>
                </mxCell>
                <mxCell id="45" value="" style="line;strokeWidth=2;direction=south;html=1;fontFamily=Courier New;" vertex="1" parent="1">
                    <mxGeometry x="-675" y="230" width="10" height="160" as="geometry"/>
                </mxCell>
                <mxCell id="46" value="" style="line;strokeWidth=2;direction=south;html=1;fontFamily=Courier New;" vertex="1" parent="1">
                    <mxGeometry x="-125" y="80" width="10" height="160" as="geometry"/>
                </mxCell>
                <mxCell id="47" value="" style="line;strokeWidth=2;direction=south;html=1;fontFamily=Courier New;" vertex="1" parent="1">
                    <mxGeometry x="-315" y="80" width="10" height="160" as="geometry"/>
                </mxCell>
                <mxCell id="48" value="" style="line;strokeWidth=2;direction=south;html=1;fontFamily=Courier New;" vertex="1" parent="1">
                    <mxGeometry x="-835" y="80" width="10" height="160" as="geometry"/>
                </mxCell>
                <mxCell id="49" value="" style="line;strokeWidth=2;direction=south;html=1;fontFamily=Courier New;" vertex="1" parent="1">
                    <mxGeometry x="-1000" y="80" width="10" height="160" as="geometry"/>
                </mxCell>
                <mxCell id="50" value="" style="line;strokeWidth=2;direction=south;html=1;fontFamily=Courier New;" vertex="1" parent="1">
                    <mxGeometry x="-675" y="80" width="10" height="160" as="geometry"/>
                </mxCell>
                <mxCell id="51" value="" style="line;strokeWidth=2;direction=south;html=1;fontFamily=Courier New;" vertex="1" parent="1">
                    <mxGeometry x="-485" y="80" width="10" height="160" as="geometry"/>
                </mxCell>
                <mxCell id="54" value="" style="line;strokeWidth=2;direction=south;html=1;fontFamily=Courier New;" vertex="1" parent="1">
                    <mxGeometry x="251.25" y="240" width="10" height="160" as="geometry"/>
                </mxCell>
                <mxCell id="55" value="" style="line;strokeWidth=2;direction=south;html=1;fontFamily=Courier New;" vertex="1" parent="1">
                    <mxGeometry x="715" y="240" width="10" height="160" as="geometry"/>
                </mxCell>
                <mxCell id="56" value="" style="line;strokeWidth=2;direction=south;html=1;fontFamily=Courier New;" vertex="1" parent="1">
                    <mxGeometry x="957.5" y="230" width="10" height="160" as="geometry"/>
                </mxCell>
                <mxCell id="64" value="" style="endArrow=classic;html=1;fontFamily=Courier New;entryX=0.513;entryY=0.182;entryDx=0;entryDy=0;entryPerimeter=0;exitX=0.518;exitY=0.465;exitDx=0;exitDy=0;exitPerimeter=0;" edge="1" parent="1" source="43" target="51">
                    <mxGeometry width="50" height="50" relative="1" as="geometry">
                        <mxPoint x="250" y="160" as="sourcePoint"/>
                        <mxPoint x="300" y="110" as="targetPoint"/>
                    </mxGeometry>
                </mxCell>
                <mxCell id="65" value="" style="endArrow=classic;html=1;fontFamily=Courier New;entryX=0.606;entryY=0.243;entryDx=0;entryDy=0;entryPerimeter=0;" edge="1" parent="1" target="43">
                    <mxGeometry width="50" height="50" relative="1" as="geometry">
                        <mxPoint x="-480" y="170" as="sourcePoint"/>
                        <mxPoint x="-430" y="120" as="targetPoint"/>
                    </mxGeometry>
                </mxCell>
                <mxCell id="66" value="" style="line;strokeWidth=2;direction=south;html=1;fontFamily=Courier New;" vertex="1" parent="1">
                    <mxGeometry x="-835" y="240" width="10" height="160" as="geometry"/>
                </mxCell>
                <mxCell id="67" value="" style="line;strokeWidth=2;direction=south;html=1;fontFamily=Courier New;" vertex="1" parent="1">
                    <mxGeometry x="-1000" y="240" width="10" height="160" as="geometry"/>
                </mxCell>
                <mxCell id="68" value="" style="endArrow=classic;html=1;fontFamily=Courier New;entryX=0.695;entryY=0.432;entryDx=0;entryDy=0;entryPerimeter=0;" edge="1" parent="1" target="50">
                    <mxGeometry width="50" height="50" relative="1" as="geometry">
                        <mxPoint x="260" y="190" as="sourcePoint"/>
                        <mxPoint x="310" y="140" as="targetPoint"/>
                    </mxGeometry>
                </mxCell>
                <mxCell id="69" value="" style="endArrow=classic;html=1;fontFamily=Courier New;entryX=0.794;entryY=0.576;entryDx=0;entryDy=0;entryPerimeter=0;" edge="1" parent="1" target="43">
                    <mxGeometry width="50" height="50" relative="1" as="geometry">
                        <mxPoint x="-670" y="210" as="sourcePoint"/>
                        <mxPoint x="-620" y="160" as="targetPoint"/>
                    </mxGeometry>
                </mxCell>
                <mxCell id="70" value="" style="endArrow=classic;html=1;fontFamily=Courier New;entryX=0.888;entryY=0.682;entryDx=0;entryDy=0;entryPerimeter=0;" edge="1" parent="1" target="48">
                    <mxGeometry width="50" height="50" relative="1" as="geometry">
                        <mxPoint x="250" y="220" as="sourcePoint"/>
                        <mxPoint x="300" y="170" as="targetPoint"/>
                    </mxGeometry>
                </mxCell>
                <mxCell id="71" value="" style="endArrow=classic;html=1;fontFamily=Courier New;" edge="1" parent="1">
                    <mxGeometry width="50" height="50" relative="1" as="geometry">
                        <mxPoint x="-830" y="240" as="sourcePoint"/>
                        <mxPoint x="250" y="240" as="targetPoint"/>
                    </mxGeometry>
                </mxCell>
                <mxCell id="72" value="" style="endArrow=classic;html=1;fontFamily=Courier New;entryX=0.063;entryY=1;entryDx=0;entryDy=0;entryPerimeter=0;exitX=0.127;exitY=0.307;exitDx=0;exitDy=0;exitPerimeter=0;" edge="1" parent="1" source="54" target="67">
                    <mxGeometry width="50" height="50" relative="1" as="geometry">
                        <mxPoint x="250" y="260" as="sourcePoint"/>
                        <mxPoint x="-390" y="260" as="targetPoint"/>
                    </mxGeometry>
                </mxCell>
                <mxCell id="73" value="" style="endArrow=classic;html=1;fontFamily=Courier New;entryX=0.25;entryY=0.5;entryDx=0;entryDy=0;entryPerimeter=0;" edge="1" parent="1" target="54">
                    <mxGeometry width="50" height="50" relative="1" as="geometry">
                        <mxPoint x="-1000" y="270" as="sourcePoint"/>
                        <mxPoint x="-950" y="220" as="targetPoint"/>
                    </mxGeometry>
                </mxCell>
                <mxCell id="76" value="" style="endArrow=classic;html=1;fontFamily=Courier New;entryX=0.122;entryY=0.432;entryDx=0;entryDy=0;entryPerimeter=0;exitX=0.127;exitY=0.354;exitDx=0;exitDy=0;exitPerimeter=0;" edge="1" parent="1" source="43" target="46">
                    <mxGeometry relative="1" as="geometry">
                        <mxPoint x="90" y="100" as="sourcePoint"/>
                        <mxPoint x="190" y="100" as="targetPoint"/>
                    </mxGeometry>
                </mxCell>
                <mxCell id="77" value="requests Corn arry" style="edgeLabel;resizable=0;html=1;align=center;verticalAlign=middle;fontFamily=Courier New;" connectable="0" vertex="1" parent="76">
                    <mxGeometry relative="1" as="geometry">
                        <mxPoint x="14" as="offset"/>
                    </mxGeometry>
                </mxCell>
                <mxCell id="80" value="" style="endArrow=classic;html=1;fontFamily=Courier New;entryX=0.25;entryY=0.5;entryDx=0;entryDy=0;entryPerimeter=0;" edge="1" parent="1" target="43">
                    <mxGeometry relative="1" as="geometry">
                        <mxPoint x="-120" y="120" as="sourcePoint"/>
                        <mxPoint x="-20" y="120" as="targetPoint"/>
                    </mxGeometry>
                </mxCell>
                <mxCell id="81" value="return Corn" style="edgeLabel;resizable=0;html=1;align=center;verticalAlign=middle;fontFamily=Courier New;" connectable="0" vertex="1" parent="80">
                    <mxGeometry relative="1" as="geometry"/>
                </mxCell>
                <mxCell id="82" value="" style="endArrow=classic;html=1;fontFamily=Courier New;entryX=0.304;entryY=0.599;entryDx=0;entryDy=0;entryPerimeter=0;" edge="1" parent="1" target="47">
                    <mxGeometry relative="1" as="geometry">
                        <mxPoint x="250" y="130" as="sourcePoint"/>
                        <mxPoint x="-130" y="130" as="targetPoint"/>
                    </mxGeometry>
                </mxCell>
                <mxCell id="83" value="request potato object" style="edgeLabel;resizable=0;html=1;align=center;verticalAlign=middle;fontFamily=Courier New;" connectable="0" vertex="1" parent="82">
                    <mxGeometry relative="1" as="geometry"/>
                </mxCell>
                <mxCell id="84" value="" style="endArrow=classic;html=1;fontFamily=Courier New;entryX=0.375;entryY=0;entryDx=0;entryDy=0;entryPerimeter=0;" edge="1" parent="1" target="43">
                    <mxGeometry relative="1" as="geometry">
                        <mxPoint x="-310" y="140" as="sourcePoint"/>
                        <mxPoint x="-210" y="140" as="targetPoint"/>
                    </mxGeometry>
                </mxCell>
                <mxCell id="85" value="return potato" style="edgeLabel;resizable=0;html=1;align=center;verticalAlign=middle;fontFamily=Courier New;" connectable="0" vertex="1" parent="84">
                    <mxGeometry relative="1" as="geometry"/>
                </mxCell>
                <mxCell id="86" value="" style="endArrow=classic;html=1;fontFamily=Courier New;entryX=0.622;entryY=0.349;entryDx=0;entryDy=0;entryPerimeter=0;" edge="1" parent="1" target="42">
                    <mxGeometry relative="1" as="geometry">
                        <mxPoint x="260" y="340" as="sourcePoint"/>
                        <mxPoint x="440" y="290" as="targetPoint"/>
                    </mxGeometry>
                </mxCell>
                <mxCell id="87" value="return plantSeeds" style="edgeLabel;resizable=0;html=1;align=center;verticalAlign=middle;fontFamily=Courier New;" connectable="0" vertex="1" parent="86">
                    <mxGeometry relative="1" as="geometry"/>
                </mxCell>
                <mxCell id="88" value="" style="endArrow=classic;html=1;fontFamily=Courier New;entryX=0.438;entryY=0.5;entryDx=0;entryDy=0;entryPerimeter=0;" edge="1" parent="1" target="10">
                    <mxGeometry relative="1" as="geometry">
                        <mxPoint x="250" y="300" as="sourcePoint"/>
                        <mxPoint x="350" y="300" as="targetPoint"/>
                    </mxGeometry>
                </mxCell>
                <mxCell id="89" value="invoke addPlants" style="edgeLabel;resizable=0;html=1;align=center;verticalAlign=middle;fontFamily=Courier New;" connectable="0" vertex="1" parent="88">
                    <mxGeometry relative="1" as="geometry"/>
                </mxCell>
                <mxCell id="90" value="" style="endArrow=classic;html=1;fontFamily=Courier New;entryX=0.507;entryY=0.39;entryDx=0;entryDy=0;entryPerimeter=0;" edge="1" parent="1" target="54">
                    <mxGeometry relative="1" as="geometry">
                        <mxPoint x="90" y="320" as="sourcePoint"/>
                        <mxPoint x="190" y="320" as="targetPoint"/>
                    </mxGeometry>
                </mxCell>
                <mxCell id="91" value="return addPlants" style="edgeLabel;resizable=0;html=1;align=center;verticalAlign=middle;fontFamily=Courier New;" connectable="0" vertex="1" parent="90">
                    <mxGeometry relative="1" as="geometry"/>
                </mxCell>
            </root>
        </mxGraphModel>
    </diagram>
</mxfile>